<?xml version="1.0" encoding="utf-8"?>
<!-- Generator: Adobe Illustrator 21.1.0, SVG Export Plug-In . SVG Version: 6.00 Build 0)  -->
<svg version="1.1" xmlns="http://www.w3.org/2000/svg" xmlns:xlink="http://www.w3.org/1999/xlink" x="0px" y="0px"
	 viewBox="0 0 394 586" style="enable-background:new 0 0 394 586;" xml:space="preserve">
<style type="text/css">
	.st0{fill:#FFC97A;}
	.st1{opacity:0.2;fill:#C1272D;}
	.st2{fill:#FFFFFF;}
	.st3{opacity:0.75;}
	.st4{fill:none;stroke:#000000;stroke-miterlimit:10;}
	.st5{fill:#C1272D;}
	.st6{fill:none;stroke:#000000;stroke-width:3;stroke-miterlimit:10;}
	.st7{fill:#FFC97A;stroke:#000000;stroke-width:3;stroke-miterlimit:10;}
</style>
<g id="Hintergrund">
</g>
<g id="Ebene_3">
</g>
<g id="Ebene_1">
	<path class="st0" d="M302.3,504H45.7c-12,0-21.7-9.7-21.7-21.7V208.7c0-12,9.7-21.7,21.7-21.7h256.7c12,0,21.7,9.7,21.7,21.7v273.7
		C324,494.3,314.3,504,302.3,504z"/>
	<circle class="st1" cx="293.5" cy="318.5" r="25.5"/>
	<circle class="st1" cx="53.5" cy="318.5" r="25.5"/>
	<path class="st2" d="M302.2,546.6l-62.5-22c-3.7-1.3-7.7-0.9-11.2,1.2L159.9,567c-4.8,2.9-10.3,2.6-15-0.8l-16-11.6l-15.4-11.2
		l-12.6-9.1l-17.9-13c-5.2-3.8-11.4-3.7-16.5,0.3l-16.5,12.7c-11.7,9-25.9-2.8-25.9-21.4V353.4c0-13.5,7.8-24.4,17.5-24.4L174,350
		l132.5-21c9.7,0,17.5,10.9,17.5,24.4v169.5C324,538.8,313.3,550.5,302.2,546.6z"/>
	<g>
		<g class="st3">
			<path d="M305,239h-46c-6.6,0-12-5.4-12-12v0c0-6.6,5.4-12,12-12h46c6.6,0,12,5.4,12,12v0C317,233.6,311.6,239,305,239z"/>
		</g>
		<g>
			<path class="st2" d="M304,236h-46c-6.6,0-12-5.4-12-12v0c0-6.6,5.4-12,12-12h46c6.6,0,12,5.4,12,12v0
				C316,230.6,310.6,236,304,236z"/>
		</g>
	</g>
	<g>
		<g class="st3">
			<path d="M87,239H41c-6.6,0-12-5.4-12-12v0c0-6.6,5.4-12,12-12h46c6.6,0,12,5.4,12,12v0C99,233.6,93.6,239,87,239z"/>
		</g>
		<g>
			<path class="st2" d="M86,236H40c-6.6,0-12-5.4-12-12v0c0-6.6,5.4-12,12-12h46c6.6,0,12,5.4,12,12v0C98,230.6,92.6,236,86,236z"/>
		</g>
	</g>
	<g>
		<g class="st3">
			<path d="M324,209H22c-6.6,0-12-5.4-12-12v0c0-6.6,5.4-12,12-12h302c6.6,0,12,5.4,12,12v0C336,203.6,330.6,209,324,209z"/>
		</g>
		<g>
			<path class="st2" d="M324,207H22c-6.6,0-12-5.4-12-12v0c0-6.6,5.4-12,12-12h302c6.6,0,12,5.4,12,12v0
				C336,201.6,330.6,207,324,207z"/>
		</g>
	</g>
	<path class="st4" d="M209,245.5"/>
	<path class="st5" d="M314.7,183c0,0-72.8-71.3-46.7-109c19-27.4,68,12.7,68,12.7S263.6-5.5,181,19.2C108,41,24,183,24,183"/>
	<circle class="st2" cx="354" cy="111" r="30"/>
	<path class="st6" d="M44.5,271.2c0-15.8,15.4-28.7,34.5-28.7s34.5,12.8,34.5,28.7"/>
	<path class="st6" d="M229.5,272c0-15.8,15.4-28.7,34.5-28.7s34.5,12.8,34.5,28.7"/>
	<g>
		<g class="st3">
			<path d="M176,336c0,0-14,22-53,17s-70-27-70-27s-5.2,36,18,56c1.9,1.7,22.8,0.7,25,2c2.7,1.6-4.7,11-1.6,12
				c4.7,1.5,9.8,2.2,15.6,2c51-2,65-28,65-28s4.4,15.3,26.8,23.3c3.2,1.1,6.8,2.1,10.9,2.9c2.9,0.6,5.9,1,9.2,1.3
				c3.4,0.3,7.1,0.5,11.1,0.5c7.3,0,14.1-1.5,20.4-4.2c2.3-1,1.5-10.6,3.6-11.8c3-1.7,19.3-3.8,22-6c26.3-20.8,29-50,29-50
				s-35,24-71,27S176,336,176,336z"/>
		</g>
		<g>
			<path class="st2" d="M174,329c0,0-14,22-53,17s-70-27-70-27s-5.2,36,18,56c1.9,1.7,22.8,0.7,25,2c2.7,1.6-4.7,11-1.6,12
				c4.7,1.5,9.8,2.2,15.6,2c51-2,65-28,65-28s4.4,15.3,26.8,23.3c3.2,1.1,6.8,2.1,10.9,2.9c2.9,0.6,5.9,1,9.2,1.3
				c3.4,0.3,7.1,0.5,11.1,0.5c7.3,0,14.1-1.5,20.4-4.2c2.3-1,1.5-10.6,3.6-11.8c3-1.7,19.3-3.8,22-6c26.3-20.8,29-50,29-50
				s-35,24-71,27S174,329,174,329z"/>
		</g>
	</g>
	<line class="st6" x1="309.5" y1="271.5" x2="317.5" y2="270.5"/>
	<line class="st6" x1="36.5" y1="271.5" x2="30.5" y2="269.5"/>
	<path class="st7" d="M208,307.8c0,19.1-15.4,34.5-34.5,34.5S139,326.8,139,307.8"/>
</g>
<g id="Ebene_4">
</g>
</svg>
